<svg width="20" height="25" viewBox="0 0 20 25" fill="none" xmlns="http://www.w3.org/2000/svg">
<path d="M2.5 25C1.8125 25 1.22396 24.7552 0.734375 24.2656C0.244792 23.776 0 23.1875 0 22.5V2.5C0 1.8125 0.244792 1.22396 0.734375 0.734375C1.22396 0.244792 1.8125 0 2.5 0H17.5C18.1875 0 18.776 0.244792 19.2656 0.734375C19.7552 1.22396 20 1.8125 20 2.5V22.5C20 23.1875 19.7552 23.776 19.2656 24.2656C18.776 24.7552 18.1875 25 17.5 25H2.5ZM10 21.25C11.7292 21.25 13.2031 20.6406 14.4219 19.4219C15.6406 18.2031 16.25 16.7292 16.25 15C16.25 13.2708 15.6406 11.7969 14.4219 10.5781C13.2031 9.35938 11.7292 8.75 10 8.75C8.27083 8.75 6.79688 9.35938 5.57812 10.5781C4.35938 11.7969 3.75 13.2708 3.75 15C3.75 16.7292 4.35938 18.2031 5.57812 19.4219C6.79688 20.6406 8.27083 21.25 10 21.25ZM10 19.125C9.45833 19.125 8.93229 19.026 8.42188 18.8281C7.91146 18.6302 7.45833 18.3333 7.0625 17.9375L12.9375 12.0625C13.3333 12.4583 13.6302 12.9115 13.8281 13.4219C14.026 13.9323 14.125 14.4583 14.125 15C14.125 16.1458 13.724 17.1198 12.9219 17.9219C12.1198 18.724 11.1458 19.125 10 19.125ZM5 6.25C5.35417 6.25 5.65104 6.13021 5.89062 5.89062C6.13021 5.65104 6.25 5.35417 6.25 5C6.25 4.64583 6.13021 4.34896 5.89062 4.10938C5.65104 3.86979 5.35417 3.75 5 3.75C4.64583 3.75 4.34896 3.86979 4.10938 4.10938C3.86979 4.34896 3.75 4.64583 3.75 5C3.75 5.35417 3.86979 5.65104 4.10938 5.89062C4.34896 6.13021 4.64583 6.25 5 6.25ZM8.75 6.25C9.10417 6.25 9.40104 6.13021 9.64062 5.89062C9.88021 5.65104 10 5.35417 10 5C10 4.64583 9.88021 4.34896 9.64062 4.10938C9.40104 3.86979 9.10417 3.75 8.75 3.75C8.39583 3.75 8.09896 3.86979 7.85938 4.10938C7.61979 4.34896 7.5 4.64583 7.5 5C7.5 5.35417 7.61979 5.65104 7.85938 5.89062C8.09896 6.13021 8.39583 6.25 8.75 6.25Z" fill="#004AC6"/>
</svg>
