<svg width="19" height="20" viewBox="0 0 19 20" fill="none" xmlns="http://www.w3.org/2000/svg">
<path d="M9.01109 2.45438C10.7809 2.45438 12.4506 2.83423 14.02 3.59392C15.5895 4.35361 16.9002 5.4514 17.952 6.8873C18.0689 7.03756 18.1065 7.17114 18.0647 7.28801C18.023 7.40489 17.952 7.50506 17.8519 7.58855C17.7517 7.67203 17.6348 7.7096 17.5012 7.70125C17.3677 7.6929 17.2508 7.62194 17.1506 7.48837C16.2323 6.18604 15.051 5.18843 13.6068 4.49553C12.1625 3.80262 10.6306 3.45617 9.01109 3.45617C7.39153 3.45617 5.87215 3.80262 4.45295 4.49553C3.03375 5.18843 1.85665 6.18604 0.921645 7.48837C0.821467 7.63864 0.704591 7.72212 0.571019 7.73882C0.437448 7.75551 0.320572 7.72212 0.220393 7.63864C0.103518 7.55515 0.0325581 7.4508 0.00751341 7.32558C-0.0175313 7.20035 0.0200358 7.07096 0.120215 6.93739C1.1554 5.51819 2.45355 4.41622 4.01467 3.63148C5.57579 2.84675 7.24126 2.45438 9.01109 2.45438ZM9.01109 4.80858C11.2651 4.80858 13.2019 5.55993 14.8215 7.06261C16.441 8.56529 17.2508 10.4269 17.2508 12.6476C17.2508 13.4824 16.9544 14.1795 16.3617 14.7388C15.769 15.2981 15.0469 15.5778 14.1953 15.5778C13.3438 15.5778 12.6134 15.2981 12.0039 14.7388C11.3945 14.1795 11.0898 13.4824 11.0898 12.6476C11.0898 12.0966 10.8853 11.6333 10.4762 11.2576C10.0671 10.8819 9.57877 10.6941 9.01109 10.6941C8.44341 10.6941 7.95504 10.8819 7.54597 11.2576C7.13691 11.6333 6.93238 12.0966 6.93238 12.6476C6.93238 14.2671 7.4124 15.6196 8.37245 16.7048C9.33249 17.7901 10.5722 18.5498 12.0916 18.9839C12.2419 19.034 12.342 19.1175 12.3921 19.2343C12.4422 19.3512 12.4506 19.4764 12.4172 19.61C12.3838 19.7269 12.317 19.8271 12.2168 19.9105C12.1166 19.994 11.9914 20.0191 11.8411 19.9857C10.1047 19.5516 8.68551 18.6875 7.58354 17.3936C6.48157 16.0996 5.93059 14.5176 5.93059 12.6476C5.93059 11.8128 6.23112 11.1115 6.8322 10.5438C7.43327 9.97614 8.15957 9.6923 9.01109 9.6923C9.86261 9.6923 10.5889 9.97614 11.19 10.5438C11.7911 11.1115 12.0916 11.8128 12.0916 12.6476C12.0916 13.1986 12.3003 13.6619 12.7177 14.0376C13.1351 14.4132 13.6277 14.6011 14.1953 14.6011C14.763 14.6011 15.2472 14.4132 15.6479 14.0376C16.0487 13.6619 16.249 13.1986 16.249 12.6476C16.249 10.7108 15.5394 9.08288 14.1202 7.76386C12.701 6.44484 11.0063 5.78533 9.03613 5.78533C7.06595 5.78533 5.37126 6.44484 3.95206 7.76386C2.53286 9.08288 1.82326 10.7024 1.82326 12.6225C1.82326 13.0233 1.86082 13.5241 1.93596 14.1252C2.01109 14.7263 2.19058 15.4275 2.47442 16.229C2.52451 16.3792 2.52033 16.5128 2.4619 16.6297C2.40346 16.7466 2.30745 16.83 2.17388 16.8801C2.04031 16.9302 1.91091 16.926 1.78569 16.8676C1.66046 16.8092 1.57281 16.7132 1.52272 16.5796C1.27227 15.9284 1.09278 15.2814 0.984257 14.6386C0.87573 13.9958 0.821467 13.3321 0.821467 12.6476C0.821467 10.4269 1.62707 8.56529 3.23828 7.06261C4.84949 5.55993 6.77376 4.80858 9.01109 4.80858ZM9.01109 0C10.0797 0 11.1232 0.129398 12.1417 0.388193C13.1602 0.646988 14.1453 1.01848 15.097 1.50268C15.2472 1.58617 15.3349 1.68634 15.3599 1.80322C15.385 1.92009 15.3724 2.03697 15.3224 2.15385C15.2723 2.27072 15.1888 2.36255 15.0719 2.42934C14.955 2.49612 14.8131 2.48777 14.6461 2.40429C13.7612 1.95349 12.8471 1.60704 11.9038 1.36494C10.9604 1.12284 9.99618 1.00179 9.01109 1.00179C8.04269 1.00179 7.09099 1.11449 6.15599 1.33989C5.22099 1.56529 4.32773 1.92009 3.47621 2.40429C3.34263 2.48777 3.20906 2.50865 3.07549 2.4669C2.94192 2.42516 2.84174 2.33751 2.77495 2.20393C2.70817 2.07036 2.69147 1.94931 2.72486 1.84079C2.75826 1.73226 2.84174 1.63625 2.97531 1.55277C3.91031 1.05188 4.88706 0.667859 5.90554 0.400715C6.92403 0.133572 7.95921 0 9.01109 0ZM9.01109 7.23792C10.5639 7.23792 11.8996 7.75969 13.0182 8.80322C14.1369 9.84675 14.6962 11.1282 14.6962 12.6476C14.6962 12.7978 14.6503 12.9189 14.5585 13.0107C14.4667 13.1026 14.3456 13.1485 14.1953 13.1485C14.0618 13.1485 13.9449 13.1026 13.8447 13.0107C13.7445 12.9189 13.6944 12.7978 13.6944 12.6476C13.6944 11.3953 13.2311 10.3476 12.3045 9.50447C11.3778 8.6613 10.28 8.23971 9.01109 8.23971C7.74216 8.23971 6.65271 8.6613 5.74275 9.50447C4.83279 10.3476 4.37782 11.3953 4.37782 12.6476C4.37782 14 4.61157 15.1479 5.07907 16.0912C5.54657 17.0346 6.23112 17.9821 7.13273 18.9338C7.23291 19.034 7.283 19.1509 7.283 19.2844C7.283 19.418 7.23291 19.5349 7.13273 19.6351C7.03256 19.7352 6.91568 19.7853 6.78211 19.7853C6.64854 19.7853 6.53166 19.7352 6.43148 19.6351C5.44639 18.5999 4.69087 17.5438 4.16494 16.4669C3.639 15.39 3.37603 14.1169 3.37603 12.6476C3.37603 11.1282 3.92701 9.84675 5.02898 8.80322C6.13095 7.75969 7.45831 7.23792 9.01109 7.23792ZM8.98604 12.1467C9.13631 12.1467 9.25736 12.1968 9.34919 12.297C9.44102 12.3971 9.48694 12.514 9.48694 12.6476C9.48694 13.8998 9.93774 14.9266 10.8394 15.7281C11.741 16.5295 12.7928 16.9302 13.995 16.9302C14.0952 16.9302 14.2371 16.9219 14.4207 16.9052C14.6044 16.8885 14.7964 16.8634 14.9968 16.83C15.147 16.7967 15.2764 16.8175 15.385 16.8927C15.4935 16.9678 15.5645 17.0805 15.5978 17.2308C15.6312 17.3643 15.6062 17.4812 15.5227 17.5814C15.4392 17.6816 15.3307 17.7484 15.1971 17.7817C14.8966 17.8652 14.6336 17.9111 14.4082 17.9195C14.1828 17.9278 14.0451 17.932 13.995 17.932C12.509 17.932 11.2192 17.4311 10.1256 16.4293C9.03196 15.4275 8.48515 14.167 8.48515 12.6476C8.48515 12.514 8.53106 12.3971 8.62289 12.297C8.71472 12.1968 8.83577 12.1467 8.98604 12.1467Z" fill="#495F84"/>
</svg>
