<svg width="48" height="48" viewBox="0 0 48 48" fill="none" xmlns="http://www.w3.org/2000/svg">
<foreignObject x="-40" y="-40" width="128" height="128"><div xmlns="http://www.w3.org/1999/xhtml" style="backdrop-filter:blur(20px);clip-path:url(#bgblur_0_15_66_clip_path);height:100%;width:100%"></div></foreignObject><g data-figma-bg-blur-radius="40">
<rect width="48" height="48" rx="24" fill="#FBFAEE" fill-opacity="0.65"/>
<rect x="0.5" y="0.5" width="47" height="47" rx="23.5" stroke="white" stroke-opacity="0.1"/>
<path d="M20.443 27.5561C20.0055 27.1186 19.6628 26.613 19.4149 26.0394C19.167 25.4658 19.043 24.8727 19.043 24.2602C19.043 23.6477 19.1597 23.0425 19.393 22.4446C19.6263 21.8467 20.0055 21.2852 20.5305 20.7602C20.8708 20.42 21.2913 20.1283 21.792 19.8852C22.2927 19.6422 22.8857 19.4502 23.5711 19.3092C24.2565 19.1682 25.0392 19.0831 25.919 19.054C26.7989 19.0248 27.7833 19.0588 28.8722 19.1561C28.9499 20.1866 28.9742 21.1345 28.9451 21.9998C28.9159 22.8651 28.8357 23.6453 28.7045 24.3404C28.5732 25.0356 28.3885 25.6432 28.1503 26.1634C27.9121 26.6835 27.618 27.1186 27.268 27.4686C26.7527 27.9838 26.2058 28.3606 25.6274 28.5988C25.0489 28.837 24.4583 28.9561 23.8555 28.9561C23.2236 28.9561 22.6062 28.8321 22.0034 28.5842C21.4006 28.3363 20.8805 27.9936 20.443 27.5561ZM22.0763 27.3227C22.3583 27.488 22.6475 27.6071 22.944 27.68C23.2406 27.7529 23.5444 27.7894 23.8555 27.7894C24.3027 27.7894 24.7451 27.6995 25.1826 27.5196C25.6201 27.3397 26.0381 27.0505 26.4367 26.6519C26.6117 26.4769 26.7892 26.2314 26.969 25.9154C27.1489 25.5995 27.3045 25.1863 27.4357 24.6759C27.567 24.1654 27.6666 23.5481 27.7347 22.8238C27.8027 22.0995 27.8124 21.2366 27.7638 20.2352C27.2874 20.2158 26.7503 20.2085 26.1524 20.2134C25.5545 20.2182 24.959 20.2644 24.3659 20.3519C23.7729 20.4394 23.209 20.5804 22.6742 20.7748C22.1395 20.9693 21.702 21.2366 21.3617 21.5769C20.9242 22.0144 20.6229 22.447 20.4576 22.8748C20.2923 23.3026 20.2097 23.7158 20.2097 24.1144C20.2097 24.688 20.319 25.1911 20.5378 25.6238C20.7565 26.0564 20.9486 26.3602 21.1138 26.5352C21.5222 25.7575 22.0617 25.0113 22.7326 24.2967C23.4034 23.5821 24.1861 22.9963 25.0805 22.5394C24.3805 23.1519 23.7704 23.8446 23.2503 24.6175C22.7302 25.3904 22.3388 26.2922 22.0763 27.3227Z" fill="white"/>
</g>
<defs>
<clipPath id="bgblur_0_15_66_clip_path" transform="translate(40 40)"><rect width="48" height="48" rx="24"/>
</clipPath></defs>
</svg>
